<svg xmlns="http://www.w3.org/2000/svg" xmlns:xlink="http://www.w3.org/1999/xlink" width="48" height="48" viewBox="0 0 48 48" fill="none"><defs><rect id="path_0" x="0" y="0" width="48" height="48" /></defs><g opacity="1" transform="translate(0 0)  rotate(0 24 24)"><mask id="bg-mask-0" fill="white"><use xlink:href="#path_0"></use></mask><g mask="url(#bg-mask-0)" ><path id="路径 1" fill-rule="evenodd" style="fill:#4DBE86" transform="translate(1 22)  rotate(0 23 2)" opacity="1" d="M46,2C46,0.9 45.1,0 44,0L2,0C0.9,0 0,0.9 0,2C0,3.1 0.9,4 2,4L44,4C45.1,4 46,3.1 46,2z " /><path id="路径 2" fill-rule="evenodd" style="fill:#4DBE86" transform="translate(0 4.973887809242069)  rotate(0 10.503056095378966 19.013056095378964)" opacity="1" d="M0,19.03C0,19.56 0.21,20.06 0.59,20.44L17.59,37.44C17.96,37.81 18.47,38.02 19,38.03C19.81,38.02 20.54,37.52 20.84,36.77C21.14,36.02 20.96,35.16 20.38,34.6L4.81,19.03L20.42,3.42C21.2,2.63 21.2,1.37 20.42,0.59C19.64,-0.2 18.37,-0.2 17.59,0.59L0.59,17.59C0.21,17.97 0,18.49 0,19.03z " /></g></g></svg>